# xmcd
#
# Track frame offsets: 
#        150
#        23948
#        45189
#        68609
#        94137
#        120031
#        142298
#        165556
#
# Disc length: 2583 seconds
#
# Revision: 0
# Processed by: cddbd v1.5.2PL0 Copyright (c) Steve Scherf et al.
# Submitted via: ExactAudioCopy v1.0b1
#
DISCID=5d0a1508
DTITLE=Centerfold - Centerfold
DYEAR=1988
DGENRE=R&B
TTITLE0=Party Rebels
TTITLE1=Earth Jam
TTITLE2=I Didn't Know
TTITLE3=Bachelor Harry
TTITLE4=Admit It
TTITLE5=Shoe Shoe Shine
TTITLE6=For Your Love
TTITLE7=Head Over Heels (I Fell In Love With You)
EXTD=
EXTT0=
EXTT1=
EXTT2=
EXTT3=
EXTT4=
EXTT5=
EXTT6=
EXTT7=
PLAYORDER=
